<?xml version="1.0" standalone="no"?>
<!DOCTYPE svg PUBLIC "-//W3C//DTD SVG 20010904//EN"
 "http://www.w3.org/TR/2001/REC-SVG-20010904/DTD/svg10.dtd">
<svg version="1.0" xmlns="http://www.w3.org/2000/svg"
 width="1080.000000pt" height="1080.000000pt" viewBox="0 0 1080.000000 1080.000000"
 preserveAspectRatio="xMidYMid meet">

<g transform="translate(0.000000,1080.000000) scale(0.100000,-0.100000)"
fill="#7e22ce" stroke="none">
<path d="M5870 9299 c-693 -46 -1374 -225 -1948 -513 -917 -460 -1609 -1191
-2000 -2116 -331 -783 -435 -1740 -276 -2525 119 -587 412 -1137 828 -1550
793 -788 2025 -1155 3461 -1029 957 83 1675 372 2331 937 118 102 349 338 442
450 l55 68 -24 23 c-13 13 -345 330 -738 705 l-713 682 -143 -149 c-208 -216
-350 -331 -547 -445 -272 -157 -522 -233 -853 -258 -332 -25 -693 48 -947 191
-348 198 -570 504 -660 913 -21 93 -23 127 -22 392 0 270 2 300 27 435 32 177
83 365 133 490 249 634 723 1065 1339 1219 171 43 273 54 485 55 151 0 231 -4
305 -17 485 -84 839 -320 1122 -749 57 -88 66 -97 82 -86 10 7 416 325 904
706 l886 694 -26 41 c-202 323 -429 567 -723 777 -620 443 -1455 674 -2410
669 -135 -1 -301 -6 -370 -10z"/>
<path d="M5960 6325 l-194 -195 39 -40 39 -40 198 197 198 197 -37 38 c-20 21
-40 38 -43 38 -3 0 -93 -88 -200 -195z"/>
<path d="M5292 6248 l-21 -24 344 -344 c190 -190 345 -349 345 -355 0 -5 -156
-166 -347 -357 l-348 -348 23 -22 22 -23 348 348 c191 191 352 347 357 347 5
0 166 -156 357 -347 l348 -348 372 373 373 372 -375 375 -375 375 -350 -350
-350 -350 -350 350 -351 351 -22 -23z m1431 -680 l-198 -198 -42 42 -43 42
197 198 198 198 42 -42 43 -42 -197 -198z m150 -150 l-198 -198 -42 42 -43 42
197 198 198 198 42 -42 43 -42 -197 -198z"/>
<path d="M5325 5690 l-80 -80 -77 77 -78 77 -40 -39 -40 -39 77 -78 78 -78
-78 -78 -77 -78 40 -39 40 -39 73 72 c40 40 77 72 83 72 5 0 41 -31 79 -70 38
-38 74 -70 80 -70 6 0 26 16 45 35 l34 35 -79 80 -80 80 80 80 80 80 -40 40
-40 40 -80 -80z"/>
<path d="M5947 5053 c-4 -3 -7 -55 -7 -115 0 -98 -2 -109 -17 -107 -10 1 -60
1 -110 0 l-93 -1 0 -55 0 -55 110 0 110 0 0 -110 0 -110 60 0 60 0 0 110 0
110 110 0 110 0 0 55 0 55 -87 1 c-49 1 -98 1 -110 2 -23 0 -23 2 -23 113 l0
114 -53 0 c-30 0 -57 -3 -60 -7z"/>
</g>
</svg>
